HIERARCHY
ROOT Hips
{
	OFFSET -14.64140 90.27770 -84.91600
	CHANNELS 6 Xposition Yposition Zposition Zrotation Xrotation Yrotation
	JOINT Spine
	{
		OFFSET 0.00000 13.20850 -1.60436
		CHANNELS 3 Zrotation Xrotation Yrotation
		JOINT Spine1
		{
			OFFSET 0.00000 8.61716 0.00000
			CHANNELS 3 Zrotation Xrotation Yrotation
			JOINT Spine2
			{
				OFFSET 0.00000 8.61717 0.00000
				CHANNELS 3 Zrotation Xrotation Yrotation
				JOINT Spine3
				{
					OFFSET 0.00000 8.61717 0.00000
					CHANNELS 3 Zrotation Xrotation Yrotation
					JOINT Neck
					{
						OFFSET 0.00000 11.07920 1.10792
						CHANNELS 3 Zrotation Xrotation Yrotation
						JOINT Neck1
						{
							OFFSET 0.00000 7.08032 0.00000
							CHANNELS 3 Zrotation Xrotation Yrotation
							JOINT Head
							{
								OFFSET 0.00000 7.08031 0.00000
								CHANNELS 3 Zrotation Xrotation Yrotation
								End site
								{
									OFFSET 0.00000 0.00000 0.00000
								}
							}
						}
					}
					JOINT RightShoulder
					{
						OFFSET -0.01000 7.91373 5.19711
						CHANNELS 3 Zrotation Xrotation Yrotation
						JOINT RightArm
						{
							OFFSET -18.41580 0.00000 0.00000
							CHANNELS 3 Zrotation Xrotation Yrotation
							JOINT RightForeArm
							{
								OFFSET -29.11090 0.00000 0.00000
								CHANNELS 3 Zrotation Xrotation Yrotation
								JOINT RightHand
								{
									OFFSET -24.65040 0.00000 0.00000
									CHANNELS 3 Zrotation Xrotation Yrotation
									JOINT RightHandThumb1
									{
										OFFSET -5.35114 -0.85590 3.97906
										CHANNELS 3 Zrotation Xrotation Yrotation
										JOINT RightHandThumb2
										{
											OFFSET -4.52789 0.00000 0.00000
											CHANNELS 3 Zrotation Xrotation Yrotation
											JOINT RightHandThumb3
											{
												OFFSET -2.46976 0.00000 0.00000
												CHANNELS 3 Zrotation Xrotation Yrotation
												End site
												{
													OFFSET 0.00000 0.00000 0.00000
												}
											}
										}
									}
									JOINT RightHandIndex1
									{
										OFFSET -14.26970 0.00000 2.88139
										CHANNELS 3 Zrotation Xrotation Yrotation
										JOINT RightHandIndex2
										{
											OFFSET -5.48836 0.00000 0.00000
											CHANNELS 3 Zrotation Xrotation Yrotation
											JOINT RightHandIndex3
											{
												OFFSET -3.01859 0.00000 0.00000
												CHANNELS 3 Zrotation Xrotation Yrotation
												End site
												{
													OFFSET 0.00000 0.00000 0.00000
												}
											}
										}
									}
									JOINT RightHandMiddle1
									{
										OFFSET -14.26970 0.00000 -0.09147
										CHANNELS 3 Zrotation Xrotation Yrotation
										JOINT RightHandMiddle2
										{
											OFFSET -6.17441 0.00000 0.00000
											CHANNELS 3 Zrotation Xrotation Yrotation
											JOINT RightHandMiddle3
											{
												OFFSET -3.56743 0.00000 0.00000
												CHANNELS 3 Zrotation Xrotation Yrotation
												End site
												{
													OFFSET 0.00000 0.00000 0.00000
												}
											}
										}
									}
									JOINT RightHandRing1
									{
										OFFSET -12.69180 0.00000 -3.06433
										CHANNELS 3 Zrotation Xrotation Yrotation
										JOINT RightHandRing2
										{
											OFFSET -5.62556 0.00000 0.00000
											CHANNELS 3 Zrotation Xrotation Yrotation
											JOINT RightHandRing3
											{
												OFFSET -3.56744 0.00000 0.00000
												CHANNELS 3 Zrotation Xrotation Yrotation
												End site
												{
													OFFSET 0.00000 0.00000 0.00000
												}
											}
										}
									}
									JOINT RightHandPinky1
									{
										OFFSET -11.11390 0.00000 -6.03719
										CHANNELS 3 Zrotation Xrotation Yrotation
										JOINT RightHandPinky2
										{
											OFFSET -4.52789 0.00000 0.00000
											CHANNELS 3 Zrotation Xrotation Yrotation
											JOINT RightHandPinky3
											{
												OFFSET -2.46976 0.00000 0.00000
												CHANNELS 3 Zrotation Xrotation Yrotation
												End site
												{
													OFFSET 0.00000 0.00000 0.00000
												}
											}
										}
									}
								}
							}
						}
					}
					JOINT LeftShoulder
					{
						OFFSET 0.01000 7.91373 5.19711
						CHANNELS 3 Zrotation Xrotation Yrotation
						JOINT LeftArm
						{
							OFFSET 18.41580 0.00000 0.00000
							CHANNELS 3 Zrotation Xrotation Yrotation
							JOINT LeftForeArm
							{
								OFFSET 29.11090 0.00000 0.00000
								CHANNELS 3 Zrotation Xrotation Yrotation
								JOINT LeftHand
								{
									OFFSET 24.65040 0.00000 0.00000
									CHANNELS 3 Zrotation Xrotation Yrotation
									JOINT LeftHandThumb1
									{
										OFFSET 5.35114 -0.85590 3.97906
										CHANNELS 3 Zrotation Xrotation Yrotation
										JOINT LeftHandThumb2
										{
											OFFSET 4.52789 0.00000 0.00000
											CHANNELS 3 Zrotation Xrotation Yrotation
											JOINT LeftHandThumb3
											{
												OFFSET 2.46977 0.00000 0.00000
												CHANNELS 3 Zrotation Xrotation Yrotation
												End site
												{
													OFFSET 0.00000 0.00000 0.00000
												}
											}
										}
									}
									JOINT LeftHandIndex1
									{
										OFFSET 14.26970 0.00000 2.88139
										CHANNELS 3 Zrotation Xrotation Yrotation
										JOINT LeftHandIndex2
										{
											OFFSET 5.48836 0.00000 0.00000
											CHANNELS 3 Zrotation Xrotation Yrotation
											JOINT LeftHandIndex3
											{
												OFFSET 3.01859 0.00000 0.00000
												CHANNELS 3 Zrotation Xrotation Yrotation
												End site
												{
													OFFSET 0.00000 0.00000 0.00000
												}
											}
										}
									}
									JOINT LeftHandMiddle1
									{
										OFFSET 14.26970 0.00000 -0.09147
										CHANNELS 3 Zrotation Xrotation Yrotation
										JOINT LeftHandMiddle2
										{
											OFFSET 6.17440 0.00000 0.00000
											CHANNELS 3 Zrotation Xrotation Yrotation
											JOINT LeftHandMiddle3
											{
												OFFSET 3.56744 0.00000 0.00000
												CHANNELS 3 Zrotation Xrotation Yrotation
												End site
												{
													OFFSET 0.00000 0.00000 0.00000
												}
											}
										}
									}
									JOINT LeftHandRing1
									{
										OFFSET 12.69180 0.00000 -3.06433
										CHANNELS 3 Zrotation Xrotation Yrotation
										JOINT LeftHandRing2
										{
											OFFSET 5.62556 0.00000 0.00000
											CHANNELS 3 Zrotation Xrotation Yrotation
											JOINT LeftHandRing3
											{
												OFFSET 3.56744 0.00000 0.00000
												CHANNELS 3 Zrotation Xrotation Yrotation
												End site
												{
													OFFSET 0.00000 0.00000 0.00000
												}
											}
										}
									}
									JOINT LeftHandPinky1
									{
										OFFSET 11.11390 0.00000 -6.03719
										CHANNELS 3 Zrotation Xrotation Yrotation
										JOINT LeftHandPinky2
										{
											OFFSET 4.52789 0.00000 0.00000
											CHANNELS 3 Zrotation Xrotation Yrotation
											JOINT LeftHandPinky3
											{
												OFFSET 2.46976 0.00000 0.00000
												CHANNELS 3 Zrotation Xrotation Yrotation
												End site
												{
													OFFSET 0.00000 0.00000 0.00000
												}
											}
										}
									}
								}
							}
						}
					}
					JOINT pCube4
					{
						OFFSET 0.00000 10.91090 1.10792
						CHANNELS 3 Zrotation Xrotation Yrotation
						End site
						{
							OFFSET 0.00000 0.00000 0.00000
						}
					}
				}
			}
		}
	}
	JOINT RightUpLeg
	{
		OFFSET -9.98441 0.00000 0.00000
		CHANNELS 3 Zrotation Xrotation Yrotation
		JOINT RightLeg
		{
			OFFSET 0.00000 -42.11790 0.00000
			CHANNELS 3 Zrotation Xrotation Yrotation
			JOINT RightFoot
			{
				OFFSET 0.00000 -45.00020 -0.00001
				CHANNELS 3 Zrotation Xrotation Yrotation
				JOINT RightForeFoot
				{
					OFFSET 0.00000 -3.74820 0.00000
					CHANNELS 3 Zrotation Xrotation Yrotation
					JOINT RightToeBase
					{
						OFFSET 0.00000 0.06325 14.43120
						CHANNELS 3 Zrotation Xrotation Yrotation
						End site
						{
							OFFSET 0.00000 0.00000 0.00000
						}
					}
				}
			}
		}
	}
	JOINT LeftUpLeg
	{
		OFFSET 9.98441 0.00000 0.00000
		CHANNELS 3 Zrotation Xrotation Yrotation
		JOINT LeftLeg
		{
			OFFSET 0.00000 -42.11800 0.00000
			CHANNELS 3 Zrotation Xrotation Yrotation
			JOINT LeftFoot
			{
				OFFSET 0.00000 -45.00070 0.00000
				CHANNELS 3 Zrotation Xrotation Yrotation
				JOINT LeftForeFoot
				{
					OFFSET 0.00000 -3.74824 0.00000
					CHANNELS 3 Zrotation Xrotation Yrotation
					JOINT LeftToeBase
					{
						OFFSET 0.00000 0.06325 14.43110
						CHANNELS 3 Zrotation Xrotation Yrotation
						End site
						{
							OFFSET 0.00000 0.00000 0.00000
						}
					}
				}
			}
		}
	}
}
MOTION
Frames: 4
Frame Time: 0.050000
0.01086766190216937 0.013318429436017555 -0.04298566977490417 -0.03241473100904243 0.049159395561368724 -0.0020818631473352653 -3.2242103201873036 8.609106174191572 -0.67477073733652 -0.8230793087963878 3.1663381908198036 0.34025534589590894 -0.9422771514942144 0.26113035597665374 -1.7528233231581807 -0.101634820313352 0.5924259056713197 -1.0293755433131369 -0.5044875962715859 8.775906476526796 0.3120698300048736 -0.3077543601603152 -1.158633114984364 -2.5126391684471465 -0.21737751525826984 -15.638176272639962 -0.15017856463953524 3.1450953504346804 -0.012894593425621083 -9.902522972865201 61.00282184743449 2.4995518565322623 22.149204457606956 6.411085579759179 4.393579968841814 98.19461214555784 16.15073685154536 -0.3717613430112761 -5.486712991725186 4.513838439846911 -0.17345871385317013 -1.6405278894396378 -0.046384175037811275 -0.009746624724890173 -56.26797082464959 -0.028288926188149356 -0.0375874625503413 -56.222085043163254 -38.79650682835491 0.026856933765955007 0.03177944506314817 0.022290383321526105 0.02675380970188581 -0.03837236755485258 0.0031481142967678035 -0.01838693678777066 -0.03946599035575689 -36.71877326298775 -0.005029014448460175 -0.022288661823275668 0.0027009025715695485 -0.023490236858934227 -0.043012556648066386 -0.031819563758942356 0.02530105570461449 -0.0047497649612356 -19.80432968681913 -0.014655498070888742 0.04468830500175329 -0.0251550485303937 -0.013561504314102028 -0.04642364303043415 -0.03866901396691476 0.013634864530905396 0.025998393323473624 24.063646979724002 -0.033451440087944664 -0.00828493643765535 28.890404333665693 0.0066244056871788415 0.04950940505345719 28.823770335273668 0.04490450543991832 0.03277294899328 -0.18247621193660685 0.5085117915409318 8.802286411088476 -54.85982702471161 20.804268878501443 -32.36033609894042 16.34357918002693 -12.508560314307305 -105.61166693680724 -3.2648494740380958 1.7625735789292891 -4.0488147770043765 -0.4684589942153841 0.11228912514269684 -8.077468946782215 0.043023913158045025 0.011105292631107362 44.55847953878007 0.03296210190406933 -0.010324786604998604 44.52937275669005 12.437553718367802 -0.038073564419555304 -0.04881120763263057 0.04106432654637514 -0.015119516914679913 0.006844943323371543 -0.02818473839949002 -0.02646113687191451 0.026762501978142707 11.105717844348458 0.004091451606312068 -0.02325888776848022 0.002633683320703635 0.017174696793528038 -0.006719403169985184 -0.026800759541604338 -0.04664495099077085 0.011443155942516296 4.798000561622684 -0.027824877603886227 0.014946283731720755 0.03610525019622688 -0.012007355177494614 -0.01067424151654983 0.03295630687076075 -0.027635880691038738 0.008119625155104705 -5.584044111496467 -0.026789010791378052 0.018557093423663164 -6.730241749208974 0.0023698391964309877 -0.030279798811363046 -6.710117865961028 -0.03043175975953264 -0.016077217365265215 -0.02263010881453916 0.043517847202063156 0.015938213900315114 8.055899052349323 3.543590015909779 -19.20606422271318 -0.039515615696487545 10.442660780470074 0.002253028498609434 -5.577624979282551 -15.677805487282383 3.2300180975400634 0.001344600637580896 -0.02949957590404978 0.022827529200502336 -0.0050615266640163074 4.687631215739824 0.043704402726556534 12.459011726566853 -8.268956056896563 6.916886618472483 0.018222959444257822 46.40063276212019 -0.0005767474812866582 -4.331037136756975 -14.707274169337412 -3.795900382818023 0.043403553453607496 -0.02780532339456337 -0.011406119267975768 0.005597048200275142 -10.784593440049642 0.038704948792654216 
-0.040799770880481714 0.016040868600443448 0.009178697259388507 -0.02016502552107048 -0.03121017205126004 -0.009349793147319131 -3.3770795043782527 8.708584359202433 -0.6440415609255676 -0.7933776489746054 3.1471879004887002 0.36616622929529613 -0.9363026261976541 0.23809259836276211 -1.733735434557015 -0.10969633713740418 0.6099555848505406 -1.0609072092519292 -0.5772601401479739 8.771093372158726 0.2994201528662445 -0.29296370189513543 -1.0921597758229058 -2.4563502572648597 -0.27777651644432627 -15.562660676095467 -0.12074647760571726 3.2090249815552143 0.025456620209628092 -9.851135240407082 60.3026768889019 1.7728365926308316 22.266992705143647 4.7952966703462465 3.851555852774521 98.4520291352495 16.296745172454983 -0.4327134277894217 -5.293956775539651 4.520661040055862 -0.10104248617391953 -1.6004100366857643 0.04072607592266381 -0.020822905449255146 -56.212694716991386 -0.018443098375325217 -0.00472867911849991 -56.20808688695924 -38.72706030435615 0.022868624502328988 0.04611512224370522 -0.04431629274319697 -0.009237541552106581 -0.020228653933010744 0.01183961080792792 -0.04060533654800483 -0.04259629285469518 -36.665235961090666 0.047638150695623466 -0.024822732970427166 0.009375238848409921 0.009989331094407528 0.014224751286751141 -0.04606630352162404 -0.024106846416406362 0.010572817242256123 -19.782026861441622 0.04233955730814827 -0.013576304870573036 0.03300344873764022 0.02748687354654733 -0.009706807582671655 -0.04108204169872511 0.04237048245675481 -0.03235780464382663 24.060976919175477 0.029347193473134147 0.02460768148511081 28.870269570563117 -0.018043042599387066 0.04841278292038064 28.852225118940133 -0.043024958461787284 0.018445312446706767 -0.292722191197711 0.4719762091851469 8.79613626929732 -53.74768357122125 20.390089536756587 -32.727967209617766 21.104678434392678 -14.039326076736332 -107.16988540344836 -2.6052612975124694 2.2841947578272292 -4.857788932373124 -0.4257298573999354 0.07364894973627818 -8.102918575726129 -0.008644674103656404 -0.04295401334871819 44.59448227692581 -0.01638299898198583 0.002348962885921506 44.552005124641134 12.414763142649626 -0.04123815306748238 0.00829158605658567 0.033248014355068294 -0.03358853395335766 -0.013589991409923723 0.038363396910245165 -0.019908882124056886 -0.03846032943254797 11.140430021550586 -0.035133569333001144 0.040445790008509085 0.044869974305170715 0.019623174272630575 0.040428919239342706 -0.04753618306021041 -0.048332262549850485 0.009800208462769381 4.724145486085124 -0.024795304694058856 0.012464263558408418 0.014593091814717627 0.00722447674043855 0.005205900792259612 0.025272717031683135 -0.0033609060931637834 0.02813588141423115 -5.561938172680848 -0.027133098508880238 0.01432838053223657 -6.721892459624537 0.028448016279092346 0.0330107182077785 -6.749319897450914 0.02600235859359634 0.014473450923083301 0.03689359283276935 0.04885932774899368 -0.018035595120833043 8.022291761327786 3.450407926872037 -19.18109756663731 0.008658046792353739 10.379321100535359 0.01436256540272761 -5.59461724963273 -15.635793076267621 3.1552818308169996 -0.03914430880154484 -0.04636286670395524 -0.02158442585439226 -0.0447507879438711 4.733468260521666 0.00029379061560662106 12.434624726813487 -8.204306654505226 6.896928617762894 -0.0443179975838359 46.428840137778316 0.01614323278874046 -4.344775689125819 -14.763916072537047 -3.8635971925298698 0.03771315441723602 -0.003074110419993932 0.03407307167987557 0.019785974259995724 -10.730741466735637 0.032545796716993196 
-0.02860118977178884 0.03170181532247604 -0.030872852078400667 -0.028258941010332092 -0.025540627920056392 -0.0369570260865571 -3.367858364986091 8.79270774195485 -0.6535063669828718 -0.8307543704599034 3.2110896412101986 0.3870345618003949 -0.9507897802913151 0.2387173268872361 -1.7256110064482588 -0.1760813040119211 0.6356556818657852 -1.061241446182511 -0.5528495171313793 8.842969192076737 0.35364413708714404 -0.2319390060420702 -1.122174664169682 -2.388297120064864 -0.25921446557005495 -15.520611168908271 -0.10957881848524875 3.1471988666737416 -0.00011433184407712293 -9.832695680895183 59.632334839398595 1.3384497571035092 22.45099496264289 3.537250565421422 3.401405787479619 98.52075150197737 16.35531877108606 -0.4199664689947404 -4.986045083343662 4.506504431502109 -0.16270192939430303 -1.6343403842572282 -0.009548770120237403 0.0003307441633920858 -56.19240968599369 0.0046971083126674555 -0.03645021397837315 -56.283467098137116 -38.76177106531248 -0.042733645636739724 -0.015026911308475027 -0.020571430928751244 0.01614130664171285 0.02073234347093795 0.005533757967490381 -0.019784142717140452 -0.0036106682346396073 -36.71872845809953 -0.02524036356872701 0.02474835689650457 0.006021759246106484 0.04671036823818375 -0.036356810057345125 0.015474340673318075 0.007113182744896864 -0.02648606738280939 -19.757593379553573 -0.04462194604916771 -0.03220260134703927 -0.008136192451537063 0.012203847552887292 -0.00922089519232326 -0.006325490339421644 0.039078241879605465 -0.003923797264949792 24.063159676154807 0.014957114724597206 0.020924920477841363 28.835241178518864 0.01601836158707024 -0.01525951112662825 28.827586081956625 -0.004479420490891028 -0.02585260354073793 -0.1969403717839111 0.5634195787157739 8.879044191583471 -52.79699244736452 20.100832719414736 -32.956968848700356 24.967713117589568 -15.22545664827843 -108.34056674054855 -2.0912535070277474 2.7400317824871747 -5.584418596328462 -0.42665787017684637 0.06454866174934643 -8.077754534944463 0.012825795445130626 0.002959852741725683 44.57727436413204 -0.010799144514192144 0.038984420592425024 44.54289765318114 12.489943580535925 -0.04075499699852005 0.03779292750820274 0.014463900266596063 -0.03658560652573553 0.01128081706869679 -0.010128496580182797 0.0048391660487332195 -0.04508526296557168 11.14116574545564 0.04625073796529556 0.0015356832208406898 -0.019533809518929794 -0.037550588314409925 0.037609748178172926 -0.021810656926026326 0.01848358746598688 -0.03982695085491943 4.788601918745378 0.03042820986688591 -0.043951195949290214 0.027967018772113387 -0.010553360985214382 -0.02398827066189032 -0.02318256908842335 0.03289015122429303 0.005841900572955924 -5.580368275017277 0.04413714813738185 0.004327834795697957 -6.687186158485988 -0.04513066269418903 -0.04850326670728388 -6.706858141528912 -0.014035277078411141 -0.04140869914014148 0.045997566730096334 0.04933226127985528 0.04745680075870579 8.02595317029964 3.5264259845992783 -19.2109834036075 -0.04678818865105828 10.371186187511478 0.018220971746917617 -5.586580013752291 -15.624096154543825 3.148515512382954 -0.015680026787488744 0.024304199313395943 0.018756136599317956 0.030526043038952996 4.726061958049694 0.047440752206604216 12.438503050548944 -8.275411150259085 6.838667559255705 -0.018930671335373902 46.40783708989661 -0.034157297214476086 -4.327255978592631 -14.770104423027158 -3.814034987871731 -0.011445901308562878 0.03298456555202658 -0.011059446422958412 -0.037158475043521634 -10.753846358155897 0.04664638524338065 
0.027344697880578285 0.040260314821141514 -0.0009002944179930717 0.016076417496430746 -0.04919052391720522 0.0259210750341948 -3.3994016834271212 8.819582783012429 -0.6324831479831308 -0.8061170188664016 3.2113987543528024 0.34732520168728614 -0.9462761689892195 0.2333251150125919 -1.6706793042080768 -0.15040001995458027 0.5918115096798102 -1.0974852847035192 -0.5423996219005687 8.823626870730244 0.35634076806782655 -0.25409114872434524 -1.1528199761724294 -2.4510822705778086 -0.28355738253029583 -15.509831805936031 -0.1487800011396259 3.0770195991328686 0.012841148993305587 -9.792339317125542 59.45655082951976 1.2999473260625047 22.92777036657007 2.8223592666710244 3.0851209614685793 98.29201838435908 16.41718578574529 -0.3913038433072019 -4.882567401466382 4.524332065083874 -0.13605359442379647 -1.547735515982695 -0.008703750697758575 0.02123833042206963 -56.25468622416062 0.03189563204847709 0.022524105316731012 -56.234697088374865 -38.75183587503558 -0.013894799592853987 -0.030229545167515047 0.025614213522401518 0.003609017253479584 0.028129406865500004 0.014539867114792668 -0.016667850750051397 -0.04087282591498564 -36.674922568546656 -0.024313519477137162 0.0029049530765927816 0.04881474177106711 0.008613317206941884 0.007538927171879708 -0.03599970532404479 -0.02853024335208858 0.00398257120828971 -19.807816994351565 0.001955782547163798 -0.04714687494248046 0.006529992483556188 0.014157160512250572 0.010614692029049555 0.03859746364058291 0.034522795669835564 0.004619435821884797 24.067260307256653 0.03428820390954986 0.00498148961188229 28.87662377735252 -0.0345349574030603 0.04234310474584736 28.913828970069673 -0.004199351647769794 0.0471074832494823 -0.1781889102650176 0.4896767762472683 8.894226267069843 -52.474917352767854 20.115420742110963 -33.27102655394519 27.032122316038514 -15.78807572626027 -108.38045554215027 -2.0123638256176 3.116299737222988 -6.014641860226931 -0.5064261955755076 0.05189167110712735 -8.149578382751638 -0.048750964513238335 -0.041302461816527775 44.599698586527026 -0.011982061660671681 0.005199085168138315 44.604572516382206 12.444562156920446 0.008588461265495126 -0.008962536249424606 0.024483767269284147 -0.03753637032320447 0.010657989929587303 0.040505308520665535 0.00414715644225923 -0.004913875553918854 11.108567358284013 0.013278554415671493 0.03294880675392868 -0.029979073882127772 0.007947728892816067 0.018045998726986718 -0.019918882008337795 0.02220386784390711 0.04400671637803734 4.7751017355483425 -0.038859526482075246 -0.04688895865883821 0.0321223358187321 0.03828768846570671 -0.010230822391750284 0.012465032808972789 0.036072962373290676 -0.04217806901145427 -5.6177888651924315 0.006259603720657347 0.007421069070564488 -6.694835767575661 0.0024875314407516334 0.0065414767666779105 -6.75713590586366 -0.022492778734636867 0.03885820420239256 0.011159522403301467 0.002817930349523402 -6.330868057654335e-05 8.07233212231745 3.458263114113489 -19.173433002796905 -0.022899819301143605 10.377838279896658 -0.03413902313068398 -5.629007639714389 -15.632843495942646 3.1810545261813092 -0.015962710238019408 -0.004526329141673087 -0.024331143532920926 0.03286629777854279 4.651995458690256 -0.033799653805748946 12.437510805154783 -8.275225739989422 6.839206571646465 -0.01921478909636679 46.399798017224114 0.0449404223261992 -4.340560607426311 -14.705762409603963 -3.7915262940258874 -0.03812449939707897 0.021154094648493434 -0.029319607617451508 0.003883325649758203 -10.76444205703718 0.021338259824964425 
